<svg xmlns="http://www.w3.org/2000/svg" width="48" height="48" stroke="#000" stroke-linecap="round" stroke-linejoin="round" fill="#fff" fill-rule="evenodd"><defs><linearGradient id="A" x1="0%" y1="0%" x2="100%" y2="100%"><stop offset="0%" stop-color="#f9a03c"/><stop offset="100%" stop-color="#f7974e"/></linearGradient><linearGradient id="B" x1="0%" y1="0%" x2="100%" y2="100%"><stop offset="0%" stop-color="#b84e51"/><stop offset="100%" stop-color="#f68e48"/></linearGradient><linearGradient id="C" x1="0%" y1="0%" x2="100%" y2="100%"><stop offset="0%" stop-color="#f26d58"/><stop offset="100%" stop-color="#f9a03c"/></linearGradient></defs><g stroke="none"><path d="M15.1504 29.1866l7.3391 7.7468C18.4637 43.3127 11.5872 47.5 3.75 47.5H0V36.9445h3.75c5.0867 0 9.445-3.1752 11.4004-7.7579zm10.4544 11.0351L32.5 47.5H17.8498c3.0305-1.7247 5.6769-4.2228 7.755-7.2783z" fill="url(#A)"/><path d="M32.5 18.4722l14.9489 15.7795.0511-1.2656c0-3.5148-1.1718-6.7301-3.1273-9.2361 1.9555-2.506 3.1273-5.7213 3.1273-9.2361C47.5 6.4732 41.3674 0 33.7499 0H17.8498c4.0536 2.307 7.4201 5.9979 9.6584 10.5556h6.2417c2.0775 0 3.75 1.7654 3.75 3.9583s-1.6725 3.9583-3.75 3.9583z" fill="url(#B)"/><path d="M15.1504 29.1866l7.3391 7.7468C24.8668 33.1663 26.25 28.635 26.25 23.75 26.25 10.5925 16.215 0 3.75 0H0v10.5556h3.75c6.925 0 12.5 5.8847 12.5 13.1944 0 1.9404-.3928 3.7804-1.0996 5.4366zM32.5 18.4722h-2.4463c.2928 1.7044.4463 3.4693.4463 5.2778s-.1535 3.5734-.4463 5.2778H33.75c2.0775 0 3.75 1.7654 3.75 3.9583s-1.6725 3.9583-3.75 3.9583h-6.2417c-.5651 1.1504-1.2019 2.2457-1.9035 3.2774L32.5 47.5h1.25c7.2134 0 13.0952-5.8047 13.6989-13.2483z" fill="url(#C)"/></g></svg>