<svg xmlns="http://www.w3.org/2000/svg" width="830" height="830"><path stroke="#000" fill="#fff" d="M75 334h680v160H75z"/><g fill="#4f4f4f" stroke="#f2ffcc" stroke-width=".133"><path d="M377 1c-97 9-186 51-255 119-52 52-88 113-107 185-17 58-20 127-8 188 18 93 68 178 141 240 77 63 167 96 267 96 67 0 126-14 185-43 112-56 192-158 220-279 8-37 12-89 9-126-10-113-62-213-149-286-57-48-130-80-206-91-22-4-75-5-97-3zM145 343c8 4 16 12 21 21 3 6 6 20 6 28v5h-43c-30 0-45 0-45 1-2 3 2 20 6 28 8 13 20 20 38 19 15-1 26-9 32-24 2-7 3-7 7-8 4 0 4 0 3 4-3 14-13 27-25 32-6 3-9 3-21 3-13 0-16 0-21-3-18-8-28-26-28-51-1-29 13-51 35-58 9-3 26-2 35 3zm205-2c15 5 27 18 31 34 3 13 4 21 2 32-2 14-6 23-13 31-8 9-17 14-31 15-19 1-34-5-41-17l-4-6v30 30h-4-4v-74-75h4 4v12 11l3-5c7-12 22-21 37-21 4 0 11 1 16 3zm173 2c17 7 28 26 28 47v7h-44c-24 0-44 0-44 1-1 1 0 5 0 9 2 16 10 28 22 34 8 5 28 5 36 0 8-4 15-12 18-21 2-6 3-6 7-7 5 0 5 2 1 12-5 12-11 18-21 23-8 4-10 4-24 4-13 0-15 0-22-4-17-8-26-26-26-51 0-29 13-51 35-57 10-3 25-2 34 3zm101-3c15 4 24 14 25 27l1 7h-4c-4 0-4 0-5-5-2-12-9-19-22-21-16-3-32 1-38 10-8 11-1 23 15 28 4 2 12 3 17 4 10 2 24 7 29 9 1 2 5 5 7 8 3 4 3 6 3 15 0 13-2 17-12 24s-34 9-49 4c-12-3-23-16-25-29l-1-7h4c4 0 5 1 5 5 3 9 9 18 18 22 4 3 7 3 19 3s15 0 21-3c8-4 11-9 12-16 2-14-8-22-34-27-31-6-40-13-40-31 0-10 3-16 10-21 10-7 30-10 44-6zm103 0c14 4 24 14 25 28l1 6h-5c-4 0-4-1-5-6-2-14-18-23-37-21-16 2-24 8-25 19-1 13 6 18 32 24 24 5 29 7 35 13s8 11 7 23c-2 18-19 28-47 27-13-1-21-4-28-11-6-5-12-16-12-23 0-4 1-5 4-5 4 0 4 1 6 7 2 8 8 16 16 20 5 3 8 3 20 3s15 0 20-3c9-4 12-10 12-19 0-7 0-8-3-12-6-5-14-8-30-12-17-3-26-6-32-11-7-5-9-10-9-20 0-11 4-17 11-22 11-6 30-8 44-5zm-520 23l17 22c1 0 9-10 18-22 16-22 16-22 21-22 3 0 5 0 5 1s-8 12-19 26l-19 25 20 27c11 15 21 28 22 29 0 1-1 1-5 1h-6l-18-24c-10-14-18-25-19-25 0 0-9 11-19 25-18 24-19 24-24 24h-5c0-1 9-13 20-28s21-27 21-28-8-13-19-27c-10-14-19-25-19-25 0-1 3-1 6-1h6l16 22zm204-11v11l4-6c7-9 21-16 33-16 5 0 6 0 6 4 0 3-1 4-8 4-10 1-17 5-24 12-10 11-10 11-11 52v37h-5-4v-54-55h4 5v11z"/><path d="M113 348c-8 2-16 7-20 14-5 7-9 17-9 23v5h39 40v-3c0-5-4-17-8-23-4-8-12-14-21-16-8-3-13-3-21 0zm210 0c-21 6-32 30-28 59 2 17 9 28 20 34 8 5 29 5 37 0 12-6 19-18 22-35 4-25-7-49-24-57-7-2-20-3-27-1zm171 0c-16 4-28 18-30 37l-1 6h40 39v-4c0-2-1-7-2-11-6-21-25-33-46-28z"/></g></svg>