<svg xmlns="http://www.w3.org/2000/svg" xmlns:xlink="http://www.w3.org/1999/xlink" viewBox="0 0 89 86" fill="#fff" fill-rule="evenodd" stroke="#000" stroke-linecap="round" stroke-linejoin="round"><use xlink:href="#A" x=".5" y=".5"/><symbol id="A" overflow="visible"><g stroke="none" fill-rule="nonzero"><path d="M19.139 12.995c-4.993 7.308-4.371 16.816-.567 24.572l.28.553.189.35c.035.068.076.135.112.201.066.123.132.241.189.362l.364.636.208.35.422.673.189.283c.189.302.403.603.612.9.005.008.011.016.017.024.033.047.07.095.094.142.181.255.378.507.567.756l.21.272.515.645.197.24a30.04 30.04 0 0 0 .718.836l.015.015c.009.012.019.019.028.031.237.267.48.529.73.784l.234.24.583.582.238.231c.262.251.528.498.799.74l.151.132.725.624.301.244.605.473.323.25.924.676c.024.016.044.033.068.049a35.27 35.27 0 0 0 .659.444l.285.194 1.032.643.285.163.775.442c.142.078.286.151.428.225l.554.284.128.062.227.111.879.414.186.094a31.2 31.2 0 0 0 1.024.434l.25.1.967.365.121.044c.357.126.716.246 1.077.359l.26.079c.378.113.732.249 1.112.321C63.575 59.135 70.59 39.872 70.59 39.872c-5.891 7.816-16.346 9.876-26.253 7.582-.375-.094-.739-.205-1.106-.316l-.276-.095a33.55 33.55 0 0 1-1.064-.353l-.146-.054-.938-.354-.265-.106a29.72 29.72 0 0 1-1.013-.429l-.202-.091-.854-.406-.246-.121-.662-.343-.441-.236a25.59 25.59 0 0 1-.792-.453l-.267-.151c-.348-.208-.692-.425-1.032-.643-.094-.061-.185-.127-.279-.189l-.734-.497-.236-.17-.695-.51-.308-.236-.627-.499-.28-.227-.78-.662c-.026-.024-.057-.047-.094-.073-.278-.249-.551-.504-.82-.76l-.231-.227-.59-.588-.231-.236a29.72 29.72 0 0 1-.723-.779c-.011-.013-.024-.026-.036-.038a29.8 29.8 0 0 1-.733-.851l-.192-.232-.529-.664-.194-.246-.61-.827c-5.5-7.641-7.466-18.179-3.081-26.834m11.609-1.123c-3.61 5.293-3.415 12.375-.598 17.972.471.94 1.005 1.847 1.597 2.715.541.789 1.141 1.729 1.859 2.363.26.284.532.567.81.856.07.073.142.142.214.215a23.83 23.83 0 0 0 .828.784c.011.009.022.021.034.03.318.282.643.556.974.822l.219.174c.33.26.668.511 1.011.752a.61.61 0 0 0 .028.022c.151.107.307.208.461.31.074.049.144.101.217.147a20.39 20.39 0 0 0 .749.468l.106.062.662.378c.078.044.157.083.236.125l.472.244c.024.012.047.022.07.033.318.161.639.312.967.458.07.031.142.059.214.09.262.113.526.223.794.328l.34.127.728.258.329.107c.347.111.69.248 1.052.31C67.655 40.132 71.96 25.513 71.96 25.513c-3.88 5.69-11.392 8.406-19.41 6.287a19.83 19.83 0 0 1-1.056-.312c-.107-.033-.212-.068-.318-.095-.248-.082-.494-.168-.738-.259l-.334-.127c-.267-.095-.532-.213-.794-.326-.072-.031-.144-.059-.215-.093-.329-.144-.654-.297-.973-.46l-.488-.253-.282-.147c-.208-.114-.414-.232-.617-.354l-.148-.095a23.83 23.83 0 0 1-.747-.465c-.076-.049-.149-.095-.225-.153l-.484-.326a26.02 26.02 0 0 1-1.008-.75l-.227-.181c-3.509-2.822-6.291-6.678-7.614-11.051-1.386-4.536-1.087-9.626 1.323-13.757m10.063-.359c-2.128 3.191-2.337 7.153-.851 10.676 1.558 3.74 4.749 6.674 8.474 8.065a8.98 8.98 0 0 0 .473.163l.204.066c.219.07.438.151.663.195 10.294 2.025 13.086-5.379 13.829-6.469-2.446 3.587-6.556 4.448-11.599 3.201-.397-.099-.836-.246-1.229-.384-.493-.179-.977-.383-1.449-.613-.898-.44-1.749-.969-2.54-1.579C49.124 12.069 46.32 5.417 49.265 0" fill="#0868ac"/><g fill="#131b28"><path d="M24.939 69.965l-.697 2.472.697-2.471zm3.588 5.366l-.768-.005.768.005zm-.189 3.691l-4.604.017 4.604-.017zm.964-3.686l-.769-.005.769.005zm-.55 3.372l.803-3.059-.803 3.059zm16.946-14.088l-1.493 7.025 1.493-7.025zm-3.842 0l-1.134 5.248 1.134-5.248z"/><path d="M45.432 64.304h-3.194a.42.42 0 0 0-.391.316l-2.268 10.497a.42.42 0 0 1-.39.315h-2.262c-2.238 0-1.979-1.547-1.512-3.667l.014-.064.271-1.446.117-.595 1.032-5.039c.036-.174-.08-.317-.258-.317h-3.279c-.186.006-.345.135-.389.316l-1.477 7.007c-.813 3.709-.597 7.245 3.818 7.356l.128.003h6.929a.42.42 0 0 0 .39-.316l2.988-14.05a.25.25 0 0 0-.255-.316zm12.747 11.164c.178 0 .283.142.258.316l-.31 1.517m-.31 1.518l.31-1.518-.31 1.518zm-.389.319l-5.888.028 5.888-.028z"/><path d="M49.632 73.516c-.003-.166.186-.452.364-.452l-.399-.007c-.189 1.809.035.458.035.458zm2.198 5.65h-.062.062zm6.348-3.697c.178 0 .283.142.258.316l-.361 1.763m-4.733 1.623h-.013.013zm-.784-.006h-.045.045zm-.239.001h-.076.076zm-.233 0h-.066.066zm.437-.001h-.194.194z"/><path d="M53.33 79.171l-.771.003.771-.003zm4.099-.024l-4.087.025 4.087-.025zm.378-.328l.26-1.27-.26 1.271zm-5.572.347h-.149.168zm-.468 0h-.227.227zm.243 0h-.189.189zM5.266 73.554l.496-2.2-.567 2.514-.066.316.138-.631zm5.941-9.286H7.697c-.186.007-.346.135-.394.315l-.665 2.93c-.023.077-.006.16.044.223s.128.097.208.092h3.536a.42.42 0 0 0 .391-.315l.643-2.936c.038-.173-.076-.315-.255-.315zm-.764 4.884l-1.04 4.761 1.04-4.761zM.249 84.931l2.894.023a298.29 298.29 0 0 1-2.895-.024z"/><path d="M6.248 69.153l-.497 2.2.497-2.2zm3.941-.315H6.652c-.186.007-.346.135-.394.315l-.992 4.4-.138.631-.945 4.492-.17.621c-.066.204-.661 1.966-1.771 1.944l-1.101-.021c-.185.005-.346.13-.397.308l-.732 3.084c-.023.076-.008.16.041.223s.126.099.206.095l2.895.024c2.775 0 4.237-1.538 5.175-5.961l2.127-9.829c.038-.173-.078-.315-.255-.315zm50.243 10.148c-.178 0-.284-.142-.255-.316l2.66-12.462M64.13 78.67l1.077-5.319-1.077 5.319z"/><path d="M60.216 78.828c-.022-.087-.01-.3.028-.473l1.263-5.916-1.331 6.231a.25.25 0 0 0 .255.316h.323c-.178 0-.518-.071-.539-.158zm3.705.087c-.096.038-.321.071-.499.071h.323c.185-.007.343-.136.387-.317l.064-.316c-.035.174-.189.523-.283.561zm.756-2.905l.475-2.348-.475 2.348zm10.498-8.967l.146.605c.041.173-.072.314-.248.315"/><path d="M64.194 78.354l.472-2.344-.472 2.344zm10.827-11.942l.145.62-.145-.62zm-9.878 7.251l.13-.628.507-2.377-.575 2.692-.063.312zm-2.262-7.659l-.111.52-1.263 5.916 1.331-6.231.043-.204z"/><path d="M75.313 67.648l-.146-.605-.217-.945c-.287-1.115-1.13-1.761-2.962-1.761l-8.43-.006c-.186.006-.345.135-.389.316l-.13.617-.189.933-2.593 12.147c-.038.174-.05.378-.028.473s.362.158.539.158h2.665c.178 0 .402-.032.499-.071s.24-.378.284-.561l1.011-5.003 1.082-5.07a.42.42 0 0 1 .389-.315l8.386-.004c.177 0 .289-.142.249-.315zm10.796-5.475l-.645.003h-2.684a.69.69 0 0 0-.505.267l-5.935 8.695c-.1.146-.215.125-.255-.047l-.437-1.916c-.048-.18-.208-.307-.394-.315h-3.815c-.178 0-.283.139-.234.31l1.701 5.99a1.43 1.43 0 0 1 .009.624l-.756 2.899c-.026.076-.012.159.037.222s.127.097.206.091h3.78a.44.44 0 0 0 .403-.312l.756-2.899a1.93 1.93 0 0 1 .274-.571l9.646-12.79c.107-.142.049-.257-.129-.255l-1.011.007zm-30.315 7.501a.39.39 0 0 1-.378.331h-4.839c-.167 0-.252-.113-.227-.255l.004-.026.022-.082c.473-1.229 1.403-2.035 3.172-2.035 1.991 0 2.38.974 2.245 2.067zm-1.419-5.584c-6.209 0-7.681 3.769-8.506 7.573-.826 3.878-.754 7.504 5.67 7.504h1.019l.784-.003 4.089-.025c.184-.009.341-.137.385-.317l.621-3.036c.036-.174-.08-.316-.258-.316h-5.776c-2.297 0-2.98-.611-2.729-2.405h9.234a.37.37 0 0 0 .342-.238.39.39 0 0 0 .023-.08c1.37-5.17.977-8.654-4.896-8.654zm-29.349 5.563l-.087.309c0 .001-.698 2.472-.698 2.472l-.697 2.47c-.059.178-.222.302-.41.31h-3.692c-2.799 0-3.481-2.19-2.799-5.419.68-3.303 2.018-5.357 4.773-5.565 3.765-.284 4.518 2.365 3.61 5.421zm2.531 5.373s1.739-4.225 2.136-6.666c.539-3.267-1.096-8.005-7.414-8.005-6.282 0-9.01 4.523-10.05 9.451-1.04 4.952.323 9.296 6.568 9.262l9.532-.035c.187-.009.349-.135.404-.314l.803-3.06c.026-.075.013-.159-.036-.222s-.126-.098-.206-.092l-1.538-.009c-.151-.001-.236-.098-.219-.227.004-.024.009-.047.019-.072zm31.097-2.826c0 .117-.094.212-.212.212s-.212-.094-.212-.212.095-.212.212-.212.212.095.212.212z"/></g></g></symbol></svg>