<svg xmlns="http://www.w3.org/2000/svg" width="48" height="48" stroke="none" stroke-linecap="round" stroke-linejoin="round" fill="#fff" fill-rule="nonzero"><path d="M43.982 0H3.5061C1.5734 0 0 1.5334 0 3.4216v40.6642C0 45.9636 1.5734 47.5 3.5061 47.5H43.985c1.9371 0 3.515-1.5364 3.515-3.4142V3.4216C47.5 1.5334 45.9221 0 43.982 0z" fill="#0177b5"/><path d="M7.0434 17.8071h7.0582v22.6671H7.0434zm3.5239-11.2816c2.2518 0 4.082 1.8303 4.082 4.0822s-1.8302 4.0866-4.0805 4.0866-4.0823-1.8314-4.088-4.0866c0-1.0834.4307-2.1225 1.1971-2.8881s1.806-1.1953 2.8894-1.1941m7.9414 11.2816h6.7569v3.098h.0935c.9411-1.7813 3.2389-3.6606 6.6797-3.6606 7.1339 0 8.4505 4.6952 8.4505 10.7977v12.4335h-7.0404V29.4494c0-2.6274-.0475-6.0119-3.6605-6.0119-3.6664 0-4.2304 2.8649-4.2304 5.8189v11.2134h-7.0389V17.8027z"/></svg>