<svg xmlns="http://www.w3.org/2000/svg" width="50" height="55" stroke="none" stroke-linecap="round" stroke-linejoin="round" fill="#fff" fill-rule="nonzero"><path d="M48.4612 42.3895L25.986 55v-9.8192l14.0015-7.6416zM50 41.0094V14.6438l-8.2207 4.7128v16.9503zM1.5388 42.3895L24.0105 55v-9.8192l-14.0102-7.6433zM0 41.0094V14.6438l8.2207 4.7128v16.9503zm.9635-28.0775L24.0105 0v9.4909L9.1079 17.6172zm48.0695 0L25.986 0v9.4909l14.9026 8.1177z" fill="#8ed6fb"/><path d="M24.0105 43.3761l-13.8178-7.5402V20.9103l13.8178 7.9131zm1.9755 0l13.8196-7.5333V20.8897L25.986 28.8234zm-.9877-15.125zm-13.8699-9.0664l13.8699-7.5608 13.8698 7.5625-13.8698 7.9406z" fill="#1c78c0"/></svg>